<?xml version="1.0" encoding="utf-8"?>
<!-- Generator: Adobe Illustrator 28.3.0, SVG Export Plug-In . SVG Version: 6.00 Build 0)  -->
<svg version="1.1" id="Ebene_1" xmlns="http://www.w3.org/2000/svg" xmlns:xlink="http://www.w3.org/1999/xlink" x="0px" y="0px"
	 viewBox="0 0 256 256" style="enable-background:new 0 0 256 256;" xml:space="preserve">
<style type="text/css">
	.st0{fill:#111336;}
	.st1{fill:#00FF00;}
</style>
<path class="st0" d="M192.8,127.6c-27.6,0-46.9-18.2-46.9-44.4c0-24.1,20.8-43.6,46.4-43.6s41.5,15.3,41.5,37.1
	c0,15.6-8.2,32.2-23.5,32.2c-3.7,0-6.3-1.3-7.8-3.8l-0.3-0.5l-0.5,0.4c-3.3,2.7-7.8,4.1-13.1,4.1c-4.4,0-8.5-1.1-11.8-3.2
	c-4.5-2.9-6.8-7.2-6.8-12.5c0-7,4.5-12,13.4-14.8c5.4-1.6,12.5-2.2,16.2-2.5l0.5,0l-0.1-0.5c-0.2-2.5-0.9-4.3-2.4-5.7
	c-1.7-1.7-4.3-2.7-7.2-2.7c-3.6,0-5.9,1.1-8,2.3c-0.5,0.3-0.9,0.6-1.3,0.8c-1.2,0.8-2.3,1.5-4.1,1.5c-2.8,0-5.1-2.2-5.1-5.1
	c0-2.8,2.5-4.4,4.5-5.7l0.2-0.2c4.1-2.4,8.7-3.6,13.7-3.6c2.5,0,8.9,0.5,14.1,4.9c4.1,3.5,6.2,8.8,6.2,15.7v19.5c0,1.5,0.3,2,1.3,2
	c4,0,12.3-5.5,12.3-22.5s-12.8-28.3-31.9-28.3c-20.5,0-37.1,15.6-37.1,34.7c0,20.5,15.4,34.8,37.5,34.8c8.8,0,17.9-1.6,24.7-4.4
	c0.8-0.3,1.3-0.5,1.8-0.8c1.1-0.5,2-0.9,3.1-0.9c2.6,0,4.7,2,4.7,4.6c0,3.8-4.3,5.3-6.4,6C212.8,125.8,202.3,127.6,192.8,127.6
	L192.8,127.6z M199.7,85.3c-6.7,0.4-11.6,1.3-14.4,2.6c-3.2,1.3-5,3.4-5,5.9c0,1.7,0.7,3.3,2.2,4.5c1.4,1.1,3.7,1.8,6.3,1.8
	c5.1,0,8.9-1.9,11.2-5.5l0.1-0.1v-9.1L199.7,85.3L199.7,85.3z"/>
<path class="st1" d="M190.3,144.9c-2.9,0-5.2,2.3-5.2,5.2v38.3l-40.6-40.6l10.5-10.5c2.3-2.3,2.3-6,0-8.3c-2.3-2.3-6-2.3-8.3,0
	l-27.6,27.6c-3.1,3.1-8.2,3.1-11.3,0L45.2,93.9h77.2c2.9,0,5.2-2.3,5.2-5.2s-2.3-5.2-5.2-5.2H43.8c-9,0-16.3,7.3-16.3,16.3v88.6
	c0,9,7.3,16.3,16.3,16.3h135.4c9,0,16.3-7.3,16.3-16.3V150C195.5,147.2,193.2,144.9,190.3,144.9L190.3,144.9z M113.6,170.6
	c5,0,10.1-1.9,13.9-5.8l9.8-9.8l39.4,39.4H46l41.6-41.6l12,12C103.5,168.7,108.5,170.6,113.6,170.6z M37.8,103.1l42.5,42.5L37.8,188
	C37.8,188,37.8,103.1,37.8,103.1z"/>
</svg>
