<?xml version="1.0" encoding="utf-8"?>
<!-- Generator: $$$/GeneralStr/196=Adobe Illustrator 27.6.0, SVG Export Plug-In . SVG Version: 6.00 Build 0)  -->
<svg version="1.1" id="Ebene_1" xmlns="http://www.w3.org/2000/svg" x="0px" y="0px"
     viewBox="0 0 256 256" style="enable-background:new 0 0 256 256;" xml:space="preserve">
<style type="text/css">
	.st0{fill:#111336;}
	.st1{fill:#00FF00;}
</style>
<g>
	<path class="st0" d="M192,123.8c-27.5,0-46.7-18.2-46.7-44.2c0-24,20.8-43.5,46.3-43.5s41.3,15.2,41.3,37
		c0,15.6-8.2,32.1-23.4,32.1c-3.6,0-6.2-1.3-7.7-3.8l-0.3-0.5l-0.5,0.4c-3.3,2.7-7.8,4.1-13,4.1c-4.3,0-8.4-1.1-11.8-3.2
		c-4.5-2.9-6.8-7.2-6.8-12.4c0-7,4.5-12,13.3-14.7c5.4-1.6,12.4-2.2,16.2-2.5l0.5,0l-0.1-0.5c-0.2-2.5-0.9-4.3-2.4-5.7
		c-1.7-1.7-4.3-2.6-7.2-2.6c-3.6,0-5.9,1.1-7.9,2.2c-0.5,0.3-0.9,0.6-1.3,0.8c-1.2,0.8-2.3,1.5-4.1,1.5c-2.8,0-5-2.2-5-5
		s2.5-4.4,4.5-5.7l0.2-0.2c4.1-2.4,8.7-3.6,13.6-3.6c2.5,0,8.9,0.5,14,4.9c4.1,3.5,6.2,8.8,6.2,15.7v19.5c0,1.5,0.3,2,1.3,2
		c4,0,12.3-5.5,12.3-22.5s-12.8-28.2-31.8-28.2c-20.4,0-37,15.5-37,34.6c0,20.4,15.4,34.7,37.4,34.7c8.8,0,17.8-1.6,24.7-4.4
		c0.8-0.3,1.3-0.5,1.8-0.8c1.1-0.5,2-0.9,3.1-0.9c2.6,0,4.7,2,4.7,4.6c0,3.8-4.3,5.3-6.4,5.9C212,122,201.5,123.8,192,123.8
		L192,123.8z M198.9,81.7c-6.7,0.4-11.5,1.3-14.3,2.6c-3.2,1.3-4.9,3.4-4.9,5.9c0,1.7,0.7,3.2,2.2,4.5c1.4,1.1,3.7,1.8,6.3,1.8
		c5.1,0,8.9-1.9,11.2-5.5l0.1-0.1v-9.1L198.9,81.7L198.9,81.7z"/>
	<path class="st1" d="M189.6,141c-2.8,0-5.1,2.3-5.1,5.1v38.2L144,144l10.4-10.4c2.3-2.3,2.3-6,0-8.2c-2.3-2.3-6-2.3-8.2,0
		l-27.5,27.5c-3.1,3.1-8.2,3.1-11.3,0L45,90.3h76.9c2.8,0,5.1-2.3,5.1-5.1c0-2.8-2.3-5.1-5.1-5.1H43.5c-9,0-16.2,7.3-16.2,16.2v88.3
		c0,8.9,7.3,16.2,16.2,16.2h134.9c9,0,16.2-7.3,16.2-16.2v-38.3C194.7,143.4,192.4,141.1,189.6,141L189.6,141z M113.1,166.7
		c5,0,10.1-1.9,13.9-5.8l9.7-9.7l39.3,39.3H45.8L87.2,149l12,12C103,164.8,108,166.7,113.1,166.7z M37.6,99.4l42.3,42.3l-42.3,42.3
		C37.6,184.1,37.6,99.4,37.6,99.4z"/>
</g>
</svg>
